#define icetmod_width 8
#define icetmod_height 384
static unsigned char icetmod_bits[] = {
   0x00, 0x20, 0x20, 0x20, 0x20, 0x00, 0x20, 0x00, 0x00, 0x55, 0x75, 0x50,
   0x70, 0x50, 0x00, 0x00, 0x02, 0x16, 0x41, 0x22, 0x14, 0x43, 0x02, 0x00,
   0x00, 0x42, 0x25, 0x02, 0x05, 0x02, 0x04, 0x00, 0x00, 0x14, 0x22, 0x22,
   0x22, 0x22, 0x14, 0x00, 0x00, 0x25, 0x22, 0x77, 0x22, 0x25, 0x00, 0x00,
   0x00, 0x00, 0x00, 0x70, 0x00, 0x02, 0x02, 0x01, 0x00, 0x40, 0x40, 0x20,
   0x20, 0x12, 0x12, 0x00, 0x00, 0x22, 0x35, 0x25, 0x25, 0x25, 0x72, 0x00,
   0x00, 0x32, 0x45, 0x34, 0x42, 0x41, 0x37, 0x00, 0x00, 0x75, 0x15, 0x35,
   0x46, 0x44, 0x34, 0x00, 0x00, 0x72, 0x41, 0x23, 0x25, 0x15, 0x12, 0x00,
   0x00, 0x22, 0x55, 0x52, 0x65, 0x45, 0x22, 0x00, 0x00, 0x00, 0x22, 0x00,
   0x20, 0x22, 0x10, 0x00, 0x00, 0x04, 0x72, 0x01, 0x72, 0x04, 0x00, 0x00,
   0x00, 0x21, 0x52, 0x44, 0x22, 0x01, 0x20, 0x00, 0x00, 0x22, 0x57, 0x57,
   0x75, 0x51, 0x56, 0x00, 0x00, 0x63, 0x15, 0x13, 0x15, 0x15, 0x67, 0x00,
   0x00, 0x73, 0x15, 0x75, 0x15, 0x15, 0x73, 0x00, 0x00, 0x67, 0x11, 0x17,
   0x51, 0x51, 0x61, 0x00, 0x00, 0x75, 0x25, 0x27, 0x25, 0x25, 0x75, 0x00,
   0x00, 0x56, 0x54, 0x34, 0x54, 0x55, 0x52, 0x00, 0x00, 0x51, 0x71, 0x51,
   0x51, 0x51, 0x57, 0x00, 0x00, 0x74, 0x55, 0x57, 0x57, 0x55, 0x71, 0x00,
   0x00, 0x73, 0x55, 0x55, 0x53, 0x71, 0x41, 0x00, 0x00, 0x63, 0x15, 0x23,
   0x45, 0x45, 0x35, 0x00, 0x00, 0x57, 0x52, 0x52, 0x52, 0x52, 0x72, 0x00,
   0x00, 0x55, 0x55, 0x55, 0x55, 0x72, 0x52, 0x00, 0x00, 0x55, 0x55, 0x52,
   0x22, 0x25, 0x25, 0x00, 0x00, 0x67, 0x24, 0x22, 0x21, 0x21, 0x67, 0x00,
   0x00, 0x31, 0x21, 0x22, 0x22, 0x24, 0x34, 0x00, 0x00, 0x02, 0x05, 0x00,
   0x00, 0x00, 0x70, 0x00, 0x00, 0x02, 0x34, 0x40, 0x70, 0x50, 0x70, 0x00,
   0x00, 0x01, 0x61, 0x13, 0x15, 0x15, 0x63, 0x00, 0x00, 0x04, 0x24, 0x56,
   0x75, 0x15, 0x66, 0x00, 0x00, 0x06, 0x61, 0x57, 0x51, 0x61, 0x41, 0x30,
   0x00, 0x21, 0x01, 0x33, 0x25, 0x25, 0x65, 0x00, 0x00, 0x14, 0x10, 0x54,
   0x34, 0x54, 0x54, 0x03, 0x00, 0x03, 0x52, 0x72, 0x52, 0x52, 0x56, 0x00,
   0x00, 0x00, 0x23, 0x55, 0x55, 0x55, 0x25, 0x00, 0x00, 0x00, 0x63, 0x55,
   0x55, 0x63, 0x41, 0x41, 0x00, 0x00, 0x66, 0x11, 0x21, 0x41, 0x31, 0x00,
   0x00, 0x02, 0x57, 0x52, 0x52, 0x52, 0x76, 0x00, 0x00, 0x00, 0x55, 0x55,
   0x55, 0x72, 0x52, 0x00, 0x00, 0x00, 0x55, 0x55, 0x52, 0x65, 0x45, 0x30,
   0x00, 0x60, 0x27, 0x14, 0x22, 0x21, 0x67, 0x00, 0x02, 0x32, 0x22, 0x42,
   0x22, 0x22, 0x32, 0x02, 0x00, 0x20, 0x2a, 0x25, 0x20, 0x20, 0x20, 0x00 };
